<svg aria-hidden="true" style="position: absolute; width: 0; height: 0; overflow: hidden;" version="1.1" xmlns="http://www.w3.org/2000/svg" xmlns:xlink="http://www.w3.org/1999/xlink">
    <defs>
        <symbol id="icon-book-open-01" viewBox="0 0 32 32">
            <path stroke-linejoin="round" stroke-linecap="round" stroke-miterlimit="4" stroke-width="3" d="M29.333 8.267c0-1.493 0-2.24-0.291-2.811-0.256-0.502-0.664-0.91-1.165-1.165-0.571-0.291-1.317-0.291-2.811-0.291h-0.533c-2.987 0-4.48 0-5.621 0.581-1.004 0.511-1.819 1.327-2.331 2.331-0.581 1.141-0.581 2.634-0.581 5.621v15.467l0.133-0.2c0.926-1.389 1.389-2.084 2.001-2.587 0.542-0.445 1.166-0.779 1.837-0.983 0.758-0.23 1.593-0.23 3.262-0.23h1.833c1.494 0 2.24 0 2.811-0.291 0.502-0.256 0.91-0.664 1.165-1.165 0.291-0.57 0.291-1.317 0.291-2.811v-11.467z"></path>
            <path stroke-linejoin="round" stroke-linecap="round" stroke-miterlimit="4" stroke-width="3" d="M2.667 8.267c0-1.493 0-2.24 0.291-2.811 0.256-0.502 0.664-0.91 1.165-1.165 0.57-0.291 1.317-0.291 2.811-0.291h0.533c2.987 0 4.48 0 5.621 0.581 1.004 0.511 1.819 1.327 2.331 2.331 0.581 1.141 0.581 2.634 0.581 5.621v15.467l-0.133-0.2c-0.926-1.389-1.389-2.084-2.001-2.587-0.542-0.445-1.166-0.779-1.837-0.983-0.758-0.23-1.593-0.23-3.262-0.23h-1.833c-1.493 0-2.24 0-2.811-0.291-0.502-0.256-0.91-0.664-1.165-1.165-0.291-0.57-0.291-1.317-0.291-2.811v-11.467z"></path>
        </symbol>
        <symbol id="icon-chevron-down" viewBox="0 0 32 32">
            <path d="M2.294 8.294c0.093-0.093 0.203-0.167 0.325-0.217s0.252-0.076 0.383-0.076c0.132 0 0.262 0.026 0.383 0.076s0.232 0.124 0.325 0.217l11.292 11.294 11.292-11.294c0.093-0.093 0.203-0.167 0.325-0.217s0.252-0.076 0.383-0.076c0.131 0 0.262 0.026 0.383 0.076s0.232 0.124 0.325 0.217 0.167 0.203 0.217 0.325c0.050 0.121 0.076 0.252 0.076 0.383s-0.026 0.262-0.076 0.383c-0.050 0.121-0.124 0.232-0.217 0.325l-12 12c-0.093 0.093-0.203 0.167-0.325 0.217s-0.252 0.076-0.383 0.076c-0.132 0-0.262-0.026-0.383-0.076s-0.232-0.124-0.325-0.217l-12-12c-0.093-0.093-0.167-0.203-0.217-0.325s-0.076-0.252-0.076-0.383c0-0.132 0.026-0.262 0.076-0.383s0.124-0.232 0.217-0.325z"></path>
        </symbol>
        <symbol id="icon-Logo" viewBox="0 0 152 32">
            <path fill="#ffda44" style="fill: var(--color1, #ffda44)" d="M16 32c8.837 0 16-7.163 16-16s-7.163-16-16-16c-8.837 0-16 7.163-16 16s7.163 16 16 16z"></path>
            <path fill="#338af3" style="fill: var(--color2, #338af3)" d="M0 16c0-8.836 7.163-16 16-16s16 7.163 16 16z"></path>
            <path fill="#121417" style="fill: var(--color3, #121417)" d="M52.973 21.779v2.221h-8.158v-2.221h8.159zM45.596 7.75v16.25h-2.801v-16.25h2.801zM59.737 24.223c-0.893 0-1.7-0.145-2.422-0.435-0.714-0.298-1.324-0.711-1.83-1.239-0.498-0.528-0.882-1.15-1.15-1.864s-0.402-1.484-0.402-2.31v-0.446c0-0.945 0.138-1.801 0.413-2.567s0.658-1.421 1.15-1.964c0.491-0.551 1.071-0.971 1.741-1.261s1.395-0.435 2.176-0.435c0.863 0 1.618 0.145 2.266 0.435s1.183 0.699 1.607 1.228c0.432 0.521 0.751 1.142 0.96 1.864 0.216 0.722 0.324 1.518 0.324 2.388v1.149h-9.33v-1.931h6.674v-0.212c-0.015-0.484-0.112-0.938-0.29-1.362-0.171-0.424-0.435-0.766-0.792-1.027s-0.833-0.391-1.429-0.391c-0.447 0-0.845 0.097-1.194 0.29-0.342 0.186-0.629 0.458-0.859 0.815s-0.409 0.789-0.536 1.295c-0.119 0.498-0.178 1.060-0.178 1.685v0.446c0 0.528 0.071 1.019 0.212 1.473 0.149 0.446 0.365 0.837 0.647 1.172s0.625 0.599 1.027 0.792c0.402 0.186 0.859 0.279 1.373 0.279 0.647 0 1.224-0.13 1.73-0.391s0.945-0.629 1.317-1.105l1.417 1.373c-0.26 0.379-0.599 0.744-1.016 1.094-0.417 0.342-0.926 0.621-1.529 0.837-0.595 0.216-1.287 0.324-2.076 0.324zM73.019 21.578v-5.759c0-0.432-0.078-0.804-0.234-1.116s-0.394-0.554-0.714-0.725c-0.312-0.171-0.707-0.257-1.183-0.257-0.439 0-0.819 0.074-1.138 0.223s-0.569 0.35-0.748 0.603c-0.179 0.253-0.268 0.539-0.268 0.859h-2.678c0-0.476 0.115-0.938 0.346-1.384s0.566-0.844 1.004-1.194 0.964-0.625 1.574-0.826c0.61-0.201 1.295-0.301 2.053-0.301 0.908 0 1.711 0.152 2.411 0.458 0.707 0.305 1.261 0.766 1.663 1.384 0.409 0.61 0.614 1.376 0.614 2.299v5.368c0 0.551 0.037 1.045 0.112 1.484 0.082 0.432 0.197 0.807 0.346 1.127v0.178h-2.757c-0.126-0.29-0.227-0.659-0.301-1.105-0.067-0.454-0.1-0.893-0.1-1.317zM73.409 16.656l0.022 1.663h-1.931c-0.499 0-0.938 0.048-1.317 0.145-0.379 0.089-0.696 0.223-0.949 0.402s-0.443 0.394-0.569 0.647c-0.126 0.253-0.19 0.539-0.19 0.859s0.074 0.614 0.223 0.882c0.149 0.26 0.365 0.465 0.647 0.614 0.29 0.149 0.64 0.223 1.049 0.223 0.551 0 1.031-0.112 1.44-0.335 0.417-0.231 0.744-0.51 0.982-0.837 0.238-0.335 0.365-0.651 0.38-0.949l0.871 1.194c-0.089 0.305-0.242 0.632-0.458 0.982s-0.499 0.685-0.848 1.004c-0.342 0.312-0.755 0.569-1.239 0.77-0.476 0.201-1.027 0.301-1.652 0.301-0.789 0-1.492-0.156-2.109-0.469-0.618-0.32-1.101-0.748-1.451-1.284-0.35-0.543-0.525-1.157-0.525-1.841 0-0.64 0.119-1.205 0.357-1.696 0.246-0.498 0.603-0.915 1.071-1.25 0.476-0.335 1.057-0.588 1.741-0.759 0.685-0.179 1.466-0.268 2.344-0.268h2.109zM80.776 14.223v9.777h-2.69v-12.076h2.567l0.123 2.299zM84.47 11.846l-0.022 2.5c-0.164-0.030-0.342-0.052-0.536-0.067-0.186-0.015-0.372-0.022-0.558-0.022-0.461 0-0.867 0.067-1.217 0.201-0.35 0.127-0.644 0.312-0.882 0.558-0.231 0.238-0.409 0.528-0.536 0.87s-0.201 0.726-0.223 1.149l-0.614 0.045c0-0.759 0.074-1.462 0.223-2.109s0.372-1.216 0.67-1.708c0.305-0.491 0.685-0.874 1.138-1.15 0.461-0.275 0.993-0.413 1.596-0.413 0.164 0 0.338 0.015 0.525 0.045 0.193 0.030 0.338 0.063 0.435 0.1zM88.366 14.502v9.498h-2.69v-12.076h2.534l0.156 2.578zM87.886 17.516l-0.871-0.011c0.007-0.856 0.126-1.641 0.357-2.355 0.238-0.714 0.566-1.328 0.982-1.842 0.424-0.513 0.93-0.908 1.518-1.183 0.588-0.283 1.243-0.424 1.964-0.424 0.58 0 1.105 0.082 1.574 0.245 0.476 0.156 0.882 0.413 1.216 0.77 0.342 0.357 0.603 0.822 0.781 1.395 0.179 0.565 0.268 1.261 0.268 2.087v7.801h-2.701v-7.812c0-0.58-0.085-1.038-0.257-1.373-0.164-0.342-0.406-0.584-0.725-0.726-0.313-0.149-0.703-0.223-1.172-0.223-0.461 0-0.874 0.097-1.239 0.29s-0.673 0.458-0.926 0.792c-0.246 0.335-0.435 0.722-0.569 1.161s-0.201 0.908-0.201 1.406zM108.411 21.779v2.221h-8.159v-2.221h8.159zM101.034 7.75v16.25h-2.801v-16.25h2.801zM112.73 11.924v12.076h-2.701v-12.076h2.701zM109.851 8.754c0-0.409 0.134-0.748 0.402-1.016 0.275-0.275 0.655-0.413 1.138-0.413 0.476 0 0.852 0.138 1.127 0.413 0.275 0.268 0.413 0.606 0.413 1.016 0 0.402-0.138 0.737-0.413 1.004s-0.651 0.402-1.127 0.402c-0.484 0-0.863-0.134-1.138-0.402-0.268-0.268-0.402-0.603-0.402-1.004zM117.887 14.502v9.498h-2.689v-12.076h2.533l0.157 2.578zM117.407 17.516l-0.87-0.011c0.007-0.856 0.126-1.641 0.357-2.355 0.238-0.714 0.566-1.328 0.982-1.842 0.425-0.513 0.93-0.908 1.519-1.183 0.587-0.283 1.242-0.424 1.963-0.424 0.581 0 1.105 0.082 1.574 0.245 0.477 0.156 0.882 0.413 1.217 0.77 0.342 0.357 0.602 0.822 0.781 1.395 0.179 0.565 0.269 1.261 0.269 2.087v7.801h-2.702v-7.812c0-0.58-0.085-1.038-0.256-1.373-0.163-0.342-0.406-0.584-0.726-0.726-0.312-0.149-0.703-0.223-1.171-0.223-0.462 0-0.874 0.097-1.239 0.29s-0.674 0.458-0.927 0.792c-0.246 0.335-0.435 0.722-0.569 1.161s-0.201 0.908-0.201 1.406zM135.221 11.924h2.443v11.741c0 1.086-0.231 2.009-0.691 2.768-0.462 0.759-1.105 1.336-1.931 1.73-0.825 0.402-1.782 0.603-2.867 0.603-0.462 0-0.975-0.067-1.541-0.201-0.558-0.134-1.102-0.35-1.63-0.647-0.521-0.29-0.955-0.673-1.305-1.149l1.261-1.585c0.432 0.513 0.907 0.889 1.429 1.127s1.067 0.357 1.641 0.357c0.617 0 1.142-0.115 1.574-0.346 0.439-0.223 0.777-0.554 1.015-0.993 0.239-0.439 0.358-0.975 0.358-1.607v-9.063l0.246-2.734zM127.017 18.096v-0.234c0-0.915 0.112-1.748 0.335-2.5 0.223-0.759 0.543-1.41 0.96-1.953 0.416-0.55 0.922-0.971 1.518-1.261 0.595-0.298 1.269-0.446 2.019-0.446 0.782 0 1.448 0.141 1.998 0.424 0.559 0.283 1.024 0.688 1.395 1.216 0.373 0.521 0.663 1.146 0.871 1.875 0.216 0.722 0.376 1.525 0.48 2.411v0.748c-0.097 0.863-0.261 1.652-0.491 2.366s-0.536 1.332-0.915 1.853c-0.379 0.521-0.848 0.923-1.406 1.205-0.551 0.283-1.202 0.424-1.953 0.424-0.737 0-1.402-0.153-1.998-0.458-0.589-0.305-1.094-0.733-1.518-1.283-0.417-0.551-0.737-1.198-0.96-1.942-0.223-0.752-0.335-1.566-0.335-2.444zM129.706 17.862v0.234c0 0.551 0.053 1.064 0.157 1.54 0.112 0.476 0.279 0.897 0.503 1.261 0.23 0.357 0.52 0.64 0.87 0.848 0.358 0.201 0.778 0.301 1.262 0.301 0.632 0 1.15-0.134 1.551-0.402 0.409-0.268 0.722-0.629 0.938-1.083 0.223-0.461 0.379-0.975 0.469-1.54v-2.020c-0.045-0.439-0.138-0.848-0.279-1.228-0.135-0.379-0.317-0.71-0.547-0.993-0.231-0.29-0.521-0.513-0.871-0.67-0.35-0.164-0.762-0.246-1.239-0.246-0.483 0-0.904 0.104-1.261 0.312-0.358 0.208-0.651 0.495-0.882 0.859-0.223 0.365-0.39 0.789-0.502 1.272s-0.168 1.001-0.168 1.551zM139.483 18.096v-0.257c0-0.87 0.127-1.678 0.379-2.422 0.254-0.751 0.618-1.402 1.095-1.953 0.483-0.558 1.071-0.989 1.762-1.295 0.699-0.312 1.489-0.469 2.367-0.469 0.886 0 1.674 0.156 2.366 0.469 0.699 0.305 1.291 0.737 1.775 1.295 0.483 0.551 0.851 1.202 1.105 1.953 0.253 0.744 0.379 1.551 0.379 2.422v0.257c0 0.87-0.127 1.678-0.379 2.422-0.254 0.744-0.622 1.395-1.105 1.953-0.483 0.551-1.072 0.982-1.763 1.295-0.693 0.305-1.477 0.458-2.355 0.458-0.885 0-1.678-0.153-2.377-0.458-0.691-0.312-1.28-0.744-1.763-1.295-0.483-0.558-0.851-1.209-1.105-1.953-0.253-0.744-0.379-1.551-0.379-2.422zM142.174 17.839v0.257c0 0.543 0.056 1.057 0.167 1.54 0.112 0.484 0.287 0.908 0.525 1.272 0.239 0.365 0.544 0.651 0.915 0.859 0.373 0.208 0.815 0.312 1.328 0.312 0.499 0 0.93-0.104 1.295-0.312 0.373-0.208 0.678-0.495 0.915-0.859s0.413-0.789 0.525-1.272c0.119-0.484 0.178-0.997 0.178-1.54v-0.257c0-0.536-0.059-1.042-0.178-1.518-0.112-0.484-0.29-0.911-0.536-1.283-0.238-0.372-0.543-0.662-0.915-0.87-0.365-0.216-0.8-0.324-1.305-0.324-0.506 0-0.945 0.108-1.318 0.324-0.365 0.208-0.665 0.498-0.904 0.87-0.238 0.372-0.413 0.8-0.525 1.283-0.111 0.476-0.167 0.982-0.167 1.518z"></path>
        </symbol>
        <symbol id="icon-hover" viewBox="0 0 32 32">
            <path fill="#f4c550" style="fill: var(--color4, #f4c550); stroke: var(--color4, #f4c550)" stroke="#f4c550" stroke-linejoin="round" stroke-linecap="round" stroke-miterlimit="4" stroke-width="1.2308" d="M27.787 6.147c-0.681-0.681-1.49-1.222-2.379-1.591s-1.844-0.559-2.807-0.559-1.917 0.19-2.807 0.559c-0.89 0.369-1.699 0.909-2.38 1.591l-1.413 1.413-1.413-1.413c-1.376-1.376-3.241-2.148-5.187-2.148s-3.811 0.773-5.187 2.148c-1.376 1.376-2.148 3.241-2.148 5.187s0.773 3.811 2.148 5.187l11.787 11.787 11.787-11.787c0.681-0.681 1.222-1.49 1.591-2.379s0.559-1.844 0.559-2.807-0.19-1.917-0.559-2.807c-0.369-0.89-0.909-1.699-1.591-2.38z"></path>
        </symbol>
        <symbol id="icon-log-in-01" viewBox="0 0 32 32">
            <path fill="none" stroke="#f4c550" style="stroke: var(--color4, #f4c550)" stroke-linejoin="round" stroke-linecap="round" stroke-miterlimit="4" stroke-width="3.2" d="M20 4h1.6c2.24 0 3.36 0 4.216 0.436 0.753 0.383 1.364 0.995 1.748 1.748 0.436 0.856 0.436 1.976 0.436 4.216v11.2c0 2.24 0 3.36-0.436 4.216-0.384 0.753-0.995 1.364-1.748 1.748-0.856 0.436-1.976 0.436-4.216 0.436h-1.6"></path>
            <path fill="none" stroke="#f4c550" style="stroke: var(--color4, #f4c550)" stroke-linejoin="round" stroke-linecap="round" stroke-miterlimit="4" stroke-width="3.2" d="M13.333 9.333l6.667 6.667M20 16l-6.667 6.667M20 16h-16"></path>
        </symbol>
        <symbol id="icon-normal" viewBox="0 0 32 32">
            <path stroke-linejoin="round" stroke-linecap="round" stroke-miterlimit="4" stroke-width="2.4615" d="M27.787 6.147c-0.681-0.681-1.49-1.222-2.379-1.591s-1.844-0.559-2.807-0.559-1.917 0.19-2.807 0.559c-0.89 0.369-1.699 0.909-2.38 1.591l-1.413 1.413-1.413-1.413c-1.376-1.376-3.241-2.148-5.187-2.148s-3.811 0.773-5.187 2.148c-1.376 1.376-2.148 3.241-2.148 5.187s0.773 3.811 2.148 5.187l11.787 11.787 11.787-11.787c0.681-0.681 1.222-1.49 1.591-2.379s0.559-1.844 0.559-2.807-0.19-1.917-0.559-2.807c-0.369-0.89-0.909-1.699-1.591-2.38z"></path>
        </symbol>
        <symbol id="icon-x" viewBox="0 0 32 32">
            <path stroke-linejoin="round" stroke-linecap="round" stroke-miterlimit="4" stroke-width="2.5" d="M24 8l-16 16"></path>
            <path stroke-linejoin="round" stroke-linecap="round" stroke-miterlimit="4" stroke-width="2.5" d="M8 8l16 16"></path>
        </symbol>
        <symbol id="icon-trash-2" viewBox="0 0 32 32">
            <path fill="none" stroke="#686868" style="stroke: var(--color5, #686868)" stroke-linejoin="round" stroke-linecap="round" stroke-miterlimit="4" stroke-width="2.2857" d="M4 8h24"></path>
            <path fill="none" stroke="#686868" style="stroke: var(--color5, #686868)" stroke-linejoin="round" stroke-linecap="round" stroke-miterlimit="4" stroke-width="2.2857" d="M25.334 8v18.667c0 0.707-0.281 1.386-0.781 1.886s-1.178 0.781-1.886 0.781h-13.333c-0.707 0-1.386-0.281-1.886-0.781s-0.781-1.178-0.781-1.886v-18.667M10.667 8v-2.667c0-0.707 0.281-1.385 0.781-1.886s1.178-0.781 1.886-0.781h5.333c0.707 0 1.386 0.281 1.886 0.781s0.781 1.178 0.781 1.886v2.667"></path>
            <path fill="none" stroke="#686868" style="stroke: var(--color5, #686868)" stroke-linejoin="round" stroke-linecap="round" stroke-miterlimit="4" stroke-width="2.2857" d="M13.333 14.667v8"></path>
            <path fill="none" stroke="#686868" style="stroke: var(--color5, #686868)" stroke-linejoin="round" stroke-linecap="round" stroke-miterlimit="4" stroke-width="2.2857" d="M18.667 14.667v8"></path>
        </symbol>
        <symbol id="icon-trash-21" viewBox="0 0 32 32">
            <path fill="none" stroke="#e85050" style="stroke: var(--color6, #e85050)" stroke-linejoin="round" stroke-linecap="round" stroke-miterlimit="4" stroke-width="2.2857" d="M4 8h24"></path>
            <path fill="none" stroke="#e85050" style="stroke: var(--color6, #e85050)" stroke-linejoin="round" stroke-linecap="round" stroke-miterlimit="4" stroke-width="2.2857" d="M25.334 8v18.667c0 0.707-0.281 1.385-0.781 1.886s-1.178 0.781-1.886 0.781h-13.333c-0.707 0-1.386-0.281-1.886-0.781s-0.781-1.178-0.781-1.886v-18.667M10.667 8v-2.667c0-0.707 0.281-1.385 0.781-1.886s1.178-0.781 1.886-0.781h5.333c0.707 0 1.386 0.281 1.886 0.781s0.781 1.178 0.781 1.886v2.667"></path>
            <path fill="none" stroke="#e85050" style="stroke: var(--color6, #e85050)" stroke-linejoin="round" stroke-linecap="round" stroke-miterlimit="4" stroke-width="2.2857" d="M13.333 14.667v8"></path>
            <path fill="none" stroke="#e85050" style="stroke: var(--color6, #e85050)" stroke-linejoin="round" stroke-linecap="round" stroke-miterlimit="4" stroke-width="2.2857" d="M18.667 14.667v8"></path>
        </symbol>
        <symbol id="icon-eye-off" viewBox="0 0 32 32">
            <path stroke-linejoin="round" stroke-linecap="round" stroke-miterlimit="4" stroke-width="3.2" d="M23.92 23.92c-2.279 1.737-5.055 2.7-7.92 2.747-9.333 0-14.667-10.667-14.667-10.667 1.659-3.091 3.959-5.791 6.747-7.92M13.2 5.653c0.918-0.215 1.857-0.322 2.8-0.32 9.333 0 14.667 10.667 14.667 10.667-0.809 1.514-1.775 2.94-2.88 4.253M18.827 18.827c-0.366 0.393-0.808 0.708-1.298 0.927s-1.020 0.336-1.557 0.346-1.071-0.089-1.569-0.291c-0.498-0.201-0.95-0.5-1.33-0.88s-0.679-0.832-0.88-1.33c-0.201-0.498-0.3-1.032-0.29-1.569s0.127-1.067 0.346-1.557 0.534-0.932 0.927-1.298"></path>
            <path stroke-linejoin="round" stroke-linecap="round" stroke-miterlimit="4" stroke-width="3.2" d="M1.333 1.333l29.333 29.333"></path>
        </symbol>
        <symbol id="icon-eye" viewBox="0 0 32 32">
            <path stroke-linejoin="round" stroke-linecap="round" stroke-miterlimit="4" stroke-width="3.2" d="M1.333 16c0 0 5.333-10.667 14.667-10.667s14.667 10.667 14.667 10.667c0 0-5.333 10.667-14.667 10.667s-14.667-10.667-14.667-10.667z"></path>
            <path stroke-linejoin="round" stroke-linecap="round" stroke-miterlimit="4" stroke-width="3.2" d="M16 20c2.209 0 4-1.791 4-4s-1.791-4-4-4c-2.209 0-4 1.791-4 4s1.791 4 4 4z"></path>
        </symbol>
        <symbol id="icon-star" viewBox="0 0 32 32">
            <path fill="#ffc531" style="fill: var(--color7, #ffc531); stroke: var(--color7, #ffc531)" stroke="#ffc531" stroke-linejoin="miter" stroke-linecap="butt" stroke-miterlimit="4" stroke-width="2.4" d="M19.6 9.395c0.318 0.603 0.898 1.024 1.57 1.141l7.6 1.313-5.375 5.535c-0.475 0.489-0.697 1.171-0.6 1.846l1.098 7.635-6.922-3.402-0.234-0.1c-0.476-0.169-0.996-0.169-1.473 0l-0.234 0.1-6.924 3.402 1.1-7.635c0.097-0.675-0.125-1.357-0.6-1.846l-5.377-5.535 7.602-1.313c0.672-0.116 1.252-0.538 1.57-1.141l3.6-6.822 3.6 6.822z"></path>
        </symbol>
        <symbol id="icon-pencil" viewBox="0 0 32 32">
            <path d="M27 0c2.761 0 5 2.239 5 5 0 1.126-0.372 2.164-1 3l-2 2-7-7 2-2c0.836-0.628 1.874-1 3-1zM2 23l-2 9 9-2 18.5-18.5-7-7-18.5 18.5zM22.362 11.362l-14 14-1.724-1.724 14-14 1.724 1.724z"></path>
        </symbol>
        <symbol id="icon-Iconclock" viewBox="0 0 32 32">
            <path fill="none" stroke="#99a1af" style="stroke: var(--color8, #99a1af)" stroke-linejoin="round" stroke-linecap="round" stroke-miterlimit="4" stroke-width="2.6667" d="M16 8v8l5.333 2.667"></path>
            <path fill="none" stroke="#99a1af" style="stroke: var(--color8, #99a1af)" stroke-linejoin="round" stroke-linecap="round" stroke-miterlimit="4" stroke-width="2.6667" d="M16 29.333c7.364 0 13.333-5.97 13.333-13.333s-5.969-13.333-13.333-13.333c-7.364 0-13.333 5.97-13.333 13.333s5.97 13.333 13.333 13.333z"></path>
        </symbol>
        <symbol id="icon-calendar" viewBox="0 0 32 32">
            <path fill="none" stroke="#929292" style="stroke: var(--color9, #929292)" stroke-linejoin="round" stroke-linecap="round" stroke-miterlimit="4" stroke-width="3" d="M4 13.333h24M9.333 4v2.667M22.667 4v2.667M8.267 28h15.467c1.493 0 2.24 0 2.811-0.291 0.502-0.256 0.91-0.664 1.165-1.165 0.291-0.57 0.291-1.317 0.291-2.811v-12.8c0-1.493 0-2.24-0.291-2.811-0.256-0.502-0.664-0.91-1.165-1.165-0.57-0.291-1.317-0.291-2.811-0.291h-15.467c-1.493 0-2.24 0-2.811 0.291-0.502 0.256-0.91 0.664-1.165 1.165-0.291 0.57-0.291 1.317-0.291 2.811v12.8c0 1.493 0 2.24 0.291 2.811 0.256 0.502 0.664 0.91 1.165 1.165 0.57 0.291 1.317 0.291 2.811 0.291z"></path>
        </symbol>
        <symbol id="icon-warning" viewBox="0 0 32 32">
            <path fill="#ffcc4d" style="fill: var(--color9, #ffcc4d)" d="M2.358 31.111c-1.637 0-2.359-1.189-1.605-2.643l13.875-26.716c0.755-1.453 1.989-1.453 2.744 0l13.875 26.716c0.756 1.452 0.033 2.642-1.604 2.642h-27.284z"></path>
            <path fill="#231f20" style="fill: var(--color10, #231f20)" d="M13.852 25.736c0.002-1.187 0.963-2.148 2.15-2.149h0c1.186 0.002 2.148 0.963 2.149 2.149v0c-0.002 1.187-0.963 2.148-2.149 2.15h-0c-1.187-0.002-2.149-0.963-2.15-2.15v-0zM14.017 9.476c0-1.157 0.854-1.874 1.984-1.874 1.103 0 1.985 0.744 1.985 1.874v10.612c0 1.13-0.882 1.874-1.985 1.874-1.13 0-1.984-0.717-1.984-1.874v-10.612z"></path>
        </symbol>
        <symbol id="icon-client" viewBox="0 0 32 32">
            <path fill="#606060" style="fill: var(--color9, #606060); stroke: var(--color9, #606060)" stroke="#606060" stroke-linejoin="miter" stroke-linecap="butt" stroke-miterlimit="4" stroke-width="0.5" d="M2.873 24.007c0-1.618 0-20.566 0-22.186 1.602 0 18.696 0 20.299 0 0 0.573 0 3.315 0 6.686 0.392-0.072 0.794-0.121 1.206-0.121 0.211 0 0.411 0.043 0.619 0.062v-8.447h-23.948v25.828h15.061v-1.821c-5.481 0-12.257 0-13.237 0z"></path>
            <path fill="#606060" style="fill: var(--color9, #606060); stroke: var(--color9, #606060)" stroke="#606060" stroke-linejoin="miter" stroke-linecap="butt" stroke-miterlimit="4" stroke-width="0.5" d="M5.466 13.868h12.369c0.121-0.681 0.362-1.315 0.677-1.908h-13.046v1.908z"></path>
            <path fill="#606060" style="fill: var(--color9, #606060); stroke: var(--color9, #606060)" stroke="#606060" stroke-linejoin="miter" stroke-linecap="butt" stroke-miterlimit="4" stroke-width="0.5" d="M5.466 5.996h15.11v1.908h-15.11v-1.908z"></path>
            <path fill="#606060" style="fill: var(--color9, #606060); stroke: var(--color9, #606060)" stroke="#606060" stroke-linejoin="miter" stroke-linecap="butt" stroke-miterlimit="4" stroke-width="0.5" d="M5.466 19.833h12.823c0.343-0.208 0.709-0.377 1.101-0.482-0.372-0.432-0.677-0.918-0.937-1.426h-12.987v1.908z"></path>
            <path fill="#606060" style="fill: var(--color9, #606060); stroke: var(--color9, #606060)" stroke="#606060" stroke-linejoin="miter" stroke-linecap="butt" stroke-miterlimit="4" stroke-width="0.5" d="M24.379 20.024c2.754 0 4.972-2.226 4.972-4.971 0-2.748-2.218-4.972-4.972-4.972-2.742 0-4.962 2.224-4.962 4.972 0 2.745 2.22 4.971 4.962 4.971z"></path>
            <path fill="#606060" style="fill: var(--color9, #606060); stroke: var(--color9, #606060)" stroke="#606060" stroke-linejoin="miter" stroke-linecap="butt" stroke-miterlimit="4" stroke-width="0.5" d="M28.369 20.831h-7.969c-1.423 0-2.589 1.304-2.589 2.911v8c0 0.088 0.041 0.166 0.046 0.257h13.046c0.006-0.090 0.046-0.169 0.046-0.257v-8c0.006-1.602-1.157-2.911-2.581-2.911z"></path>
        </symbol>
        <symbol id="icon-teacher" viewBox="0 0 32 32">
            <path fill="#606060" style="fill: var(--color9, #606060)" d="M22.441 20.854c0.893-0.587 2.067 0.053 2.067 1.12v1.72c0 1.693-1.32 3.507-2.907 4.040l-4.253 1.413c-0.747 0.253-1.96 0.253-2.693 0l-4.253-1.413c-1.6-0.533-2.907-2.347-2.907-4.040v-1.733c0-1.053 1.173-1.693 2.053-1.12l2.747 1.787c1.053 0.707 2.387 1.053 3.72 1.053s2.667-0.347 3.72-1.053l2.707-1.773z"></path>
            <path fill="#606060" style="fill: var(--color9, #606060)" d="M26.639 8.611l-7.987-5.24c-1.44-0.947-3.813-0.947-5.253 0l-8.027 5.24c-2.573 1.667-2.573 5.44 0 7.12l2.133 1.387 5.893 3.84c1.44 0.947 3.813 0.947 5.253 0l7.68-5.040v4.080c0 0.547 0.453 1 1 1s1-0.453 1-1v-6.56c0.533-1.72-0.013-3.72-1.693-4.827z"></path>
        </symbol>
        <symbol id="icon-success" viewBox="0 0 32 32">
            <path fill="#ffc61b" style="fill: var(--color10, #ffc61b)" d="M13.145 27.587c-1.153 0-2.238-0.449-3.054-1.265-0.329-0.329-0.329-0.862 0-1.191s0.862-0.329 1.191 0c0.498 0.498 1.159 0.772 1.863 0.772s1.365-0.274 1.863-0.772l14.539-14.539c0.498-0.498 0.772-1.159 0.772-1.863s-0.274-1.365-0.772-1.863c-1.027-1.027-2.698-1.027-3.726-0l-8.1 8.1c-0.329 0.329-0.862 0.329-1.191 0s-0.329-0.862 0-1.191l8.1-8.1c1.684-1.684 4.423-1.684 6.107 0s1.684 4.423 0 6.107l-14.539 14.539c-0.816 0.816-1.9 1.265-3.054 1.265z"></path>
            <path fill="#fee187" style="fill: var(--color11, #fee187)" d="M17.999 23.206l-2.458 2.458c-1.358 1.358-3.559 1.358-4.916 0l-8.766-8.766c-1.358-1.358-1.358-3.559 0-4.916v0c1.358-1.358 3.559-1.358 4.916 0l11.224 11.224z"></path>
            <path fill="#ffc61b" style="fill: var(--color10, #ffc61b)" d="M13.082 27.524c-1.154 0-2.238-0.449-3.054-1.265l-8.766-8.766c-1.684-1.684-1.684-4.423 0-6.107 0.816-0.816 1.9-1.265 3.054-1.265s2.238 0.449 3.054 1.265l11.224 11.224c0.329 0.329 0.329 0.862 0 1.191l-2.458 2.458c-0.816 0.816-1.9 1.265-3.054 1.265zM4.316 11.806c-0.704 0-1.365 0.274-1.863 0.772-1.027 1.027-1.027 2.699 0 3.726l8.766 8.766c0.498 0.498 1.159 0.772 1.863 0.772s1.365-0.274 1.863-0.772l1.863-1.863-10.629-10.629c-0.498-0.498-1.159-0.772-1.863-0.772z"></path>
        </symbol>
        <symbol id="icon-fail-error" viewBox="0 0 32 32">
            <path fill="#ff4013" style="fill: var(--color9, #ff4013)" d="M23.955 26.955c-0.004 0-0.008 0-0.012 0-0.825 0-1.57-0.337-2.108-0.88l-2.16-2.16c-0.161-0.177-0.26-0.413-0.26-0.673 0-0.552 0.448-1 1-1 0.258 0 0.494 0.098 0.671 0.259l-0.001-0.001 2.165 2.16c0.181 0.18 0.43 0.291 0.705 0.291s0.524-0.111 0.705-0.291l-0 0c0.18-0.181 0.291-0.43 0.291-0.705s-0.111-0.524-0.291-0.705l-6.54-6.545c-0.18-0.181-0.291-0.43-0.291-0.705s0.111-0.524 0.291-0.705l6.54-6.545c0.18-0.181 0.291-0.43 0.291-0.705s-0.111-0.524-0.291-0.705l0 0c-0.181-0.18-0.43-0.291-0.705-0.291s-0.524 0.111-0.705 0.291l-6.545 6.54c-0.181 0.18-0.43 0.291-0.705 0.291s-0.524-0.111-0.705-0.291l-6.545-6.54c-0.181-0.18-0.43-0.291-0.705-0.291s-0.524 0.111-0.705 0.291l0-0c-0.18 0.181-0.291 0.43-0.291 0.705s0.111 0.524 0.291 0.705l6.54 6.545c0.18 0.181 0.291 0.43 0.291 0.705s-0.111 0.524-0.291 0.705l-6.54 6.545c-0.18 0.181-0.291 0.43-0.291 0.705s0.111 0.524 0.291 0.705l-0-0c0.181 0.18 0.43 0.291 0.705 0.291s0.524-0.111 0.705-0.291l6.545-6.54c0.181-0.18 0.43-0.291 0.705-0.291s0.524 0.111 0.705 0.291l1.22 1.22c0.18 0.181 0.292 0.431 0.292 0.707 0 0.555-0.45 1.004-1.004 1.004-0.279 0-0.531-0.113-0.712-0.297l-0.5-0.5-5.835 5.82c-0.549 0.588-1.329 0.955-2.195 0.955-1.657 0-3-1.343-3-3 0-0.866 0.367-1.646 0.953-2.193l0.002-0.002 5.83-5.835-5.83-5.835c-0.588-0.549-0.955-1.329-0.955-2.195 0-1.657 1.343-3 3-3 0.866 0 1.646 0.367 2.193 0.953l0.002 0.002 5.835 5.83 5.835-5.83c0.549-0.588 1.329-0.955 2.195-0.955 1.657 0 3 1.343 3 3 0 0.866-0.367 1.646-0.953 2.193l-0.002 0.002-5.83 5.835 5.83 5.835c0.542 0.543 0.877 1.292 0.877 2.12 0 1.656-1.342 2.998-2.997 3h-0z"></path>
        </symbol>
        <symbol id="icon-calendar-svg" viewBox="0 0 32 32">
            <path fill="#f38181" style="fill: var(--color9, #f38181)" d="M1.498 5.225h-0.031v7.776h29.164v-1.897c0.001-0.031 0.009-0.061 0.009-0.092v-5.48c0-0.032-0.008-0.061-0.009-0.092v-0.214h-0.022c-0.15-1.047-1.042-1.854-2.13-1.854h-24.851c-1.088 0-1.98 0.808-2.13 1.854z"></path>
            <path fill="#e6e4e2" style="fill: var(--color10, #e6e4e2)" d="M30.61 26.775h0.031v-14.122h-29.164v1.897c-0.001 0.031-0.009 0.061-0.009 0.092v11.825c0 0.032 0.008 0.061 0.009 0.092v0.214h0.022c0.15 1.047 1.042 1.854 2.13 1.854h24.851c1.088 0 1.98-0.807 2.13-1.854z"></path>
            <path fill="#5b5144" style="fill: var(--color11, #5b5144)" d="M15.298 20.194c-0.151 0.181-0.282 0.312-0.624 0.614-0.191 0.181-0.393 0.363-0.584 0.544-0.614 0.574-0.725 0.715-0.866 1.188h2.427v1.35h-4.23v-0.574c0-0.785 0.201-1.38 0.735-1.964 0.373-0.413 0.806-0.775 1.219-1.158 0.594-0.544 0.715-0.695 0.715-1.178v-0.524c0-0.141 0-0.655-0.544-0.645-0.363 0-0.493 0.211-0.544 0.363-0.020 0.060-0.030 0.141-0.030 0.292v0.997h-1.491v-0.916c0-0.534 0.030-1.007 0.453-1.41 0.282-0.272 0.776-0.524 1.652-0.524 0.826 0 1.289 0.252 1.571 0.484 0.070 0.060 0.282 0.242 0.393 0.514 0.091 0.222 0.121 0.463 0.121 0.957-0 0.604 0.020 1.087-0.373 1.591zM20.465 23.216c-0.101 0.161-0.252 0.282-0.302 0.322-0.584 0.484-1.34 0.473-1.571 0.473-0.795 0-1.279-0.252-1.541-0.473-0.201-0.171-0.322-0.363-0.413-0.604-0.121-0.352-0.121-0.705-0.121-1.068v-3.233c0-0.131 0-0.272 0.010-0.403 0.010-0.161 0.040-0.604 0.363-0.977 0.272-0.332 0.745-0.594 1.662-0.594 0.725 0 1.662 0.171 1.974 0.937 0.091 0.211 0.121 0.383 0.121 0.826v0.493h-1.471v-0.373c0-0.141 0.020-0.615-0.524-0.615-0.604 0-0.594 0.504-0.594 0.675v1.319c0.201-0.201 0.453-0.463 1.088-0.463 0.866 0 1.299 0.433 1.44 0.775 0.070 0.181 0.101 0.302 0.101 0.655v1.168c-0 0.403 0.010 0.806-0.222 1.158zM19.166 21.172c0-0.151 0.050-0.735-0.554-0.735-0.151 0-0.262 0.020-0.373 0.111-0.201 0.171-0.192 0.433-0.192 0.665v0.866c0 0.181-0.040 0.685 0.574 0.685 0.191 0 0.282-0.050 0.363-0.111 0.181-0.151 0.191-0.403 0.191-0.856-0-0.201-0-0.413-0.010-0.624z"></path>
            <path fill="#fff" style="fill: var(--color12, #fff)" d="M14.247 10.186v-2.701l-0.58 2.701h-0.798l-0.58-2.701v2.701h-0.792v-3.754h1.212l0.559 2.755 0.558-2.755h1.228v3.754h-0.808zM17.189 10.186l-0.128-0.856h-0.697l-0.133 0.856h-0.888l0.76-3.754h1.212l0.76 3.754h-0.888zM16.721 7.027l-0.255 1.67h0.505l-0.25-1.67zM19.674 8.867v1.319h-0.888v-1.319l-0.893-2.436h0.893l0.457 1.659 0.457-1.659h0.909l-0.936 2.436z"></path>
        </symbol>
        <symbol id="icon-glass" viewBox="0 0 32 32">
            <path fill="#b0bdc6" style="fill: var(--color13, #b0bdc6)" d="M9.161 20.962l1.449-1.45 1.91 1.909-1.45 1.45z"></path>
            <path fill="#dfe9ef" style="fill: var(--color14, #dfe9ef)" d="M9.62 21.421l1.45-1.449 0.99 0.99-1.45 1.45z"></path>
            <path fill="#b0bdc6" style="fill: var(--color13, #b0bdc6)" d="M9.977 20.113l0.601-0.601 1.909 1.91-0.601 0.601z"></path>
            <path fill="#dfe9ef" style="fill: var(--color14, #dfe9ef)" d="M11.25 20.75c4.5 4.5 11.85 4.5 16.4 0 4.5-4.5 4.5-11.85 0-16.4s-11.85-4.5-16.4 0c-4.55 4.55-4.55 11.9 0 16.4zM12.3 5.45c3.95-3.95 10.3-3.95 14.2 0 3.95 3.95 3.95 10.3 0 14.2-3.95 3.95-10.3 3.95-14.2 0-3.9-3.9-3.9-10.25 0-14.2z"></path>
            <path fill="#b0bdc6" style="fill: var(--color13, #b0bdc6)" d="M12.050 19.95c4.050 4.050 10.65 4.050 14.75 0 4.050-4.050 4.050-10.65 0-14.75-4.050-4.050-10.65-4.050-14.75 0-4.050 4.1-4.050 10.7 0 14.75zM12.6 5.75c3.75-3.75 9.9-3.75 13.65 0s3.75 9.9 0 13.65-9.9 3.75-13.65 0-3.75-9.9 0-13.65z"></path>
            <path fill="#a6aeb0" style="fill: var(--color15, #a6aeb0)" opacity="0.6" d="M13.95 14.9c3.25 3.25 8.55 3.25 11.8 0 0.85-0.85 1.5-1.85 1.9-2.95 0.2 2.4-0.6 4.85-2.4 6.65-3.25 3.25-8.55 3.25-11.8 0-2.4-2.4-3-5.9-1.9-8.85 0.2 1.9 1 3.7 2.4 5.15z"></path>
            <path fill="#333" style="fill: var(--color16, #333)" d="M1.744 26.799l6.894-6.895 3.465 3.465-6.894 6.894z"></path>
            <path fill="#575b5e" style="fill: var(--color17, #575b5e)" d="M2.521 27.576l6.895-6.893 1.909 1.91-6.895 6.892z"></path>
            <path fill="#b0bdc6" style="fill: var(--color13, #b0bdc6)" d="M1.050 26.45c-0.55 0.55 3.9 5.050 4.5 4.5l0.35-0.35c0.55-0.55-3.9-5.050-4.5-4.5l-0.35 0.35z"></path>
            <path fill="#dfe9ef" style="fill: var(--color14, #dfe9ef)" d="M1.8 27.2c-0.55 0.55 2.4 3.55 3 3l0.35-0.35c0.55-0.55-2.4-3.55-3-3l-0.35 0.35z"></path>
        </symbol>
        <symbol id="icon-party" viewBox="0 0 32 32">
            <path fill="#f7b600" style="fill: var(--color18, #f7b600)" d="M1 30.5l4.3-1.5-3.25-1.5z"></path>
            <path fill="#ffdd7d" style="fill: var(--color19, #ffdd7d)" d="M13.45 18.2l-6.050-6.1-1 2.8z"></path>
            <path fill="#f7b600" style="fill: var(--color18, #f7b600)" d="M6.4 14.9l-1.1 3.15 13.4 6.25 0.65-0.2-5.9-5.9z"></path>
            <path fill="#ffdd7d" style="fill: var(--color19, #ffdd7d)" d="M4.25 21.2l10 4.65 4.45-1.55-13.4-6.25z"></path>
            <path fill="#f7b600" style="fill: var(--color18, #f7b600)" d="M3.15 24.35l6.6 3.1 4.5-1.6-10-4.65z"></path>
            <path fill="#ffdd7d" style="fill: var(--color19, #ffdd7d)" d="M3.15 24.35l-1.1 3.15 3.25 1.5 4.45-1.55z"></path>
            <path fill="#493816" style="fill: var(--color20, #493816)" d="M15.95 15.6c3.35 3.3 5.1 7 3.9 8.2-1.25 1.2-4.95-0.5-8.35-3.85-3.35-3.3-5.1-7-3.9-8.2 1.25-1.2 4.95 0.55 8.35 3.85z"></path>
            <path fill="#42ade2" style="fill: var(--color21, #42ade2)" d="M11.75 7.25c-0.8-1.15 0.050-1.65 1.15-1.45-1.050-1.25-0.4-2.15 1.25-1.8 0.5 0.1-0.2 0.95-0.65 0.95 1.35 1 0.6 2.1-0.85 1.85 1.3 1.75-0.9 1.3-1.9 1.4-0.25 1.3 1.25 2.8 0.75 2.8-1.1 0-2.9-4.15 0.25-3.75z"></path>
            <path fill="#ff8736" style="fill: var(--color22, #ff8736)" d="M22.25 9.65c-0.75 0.35-2.85-2.95-0.25-3-1.5-1.35-1.3-2 0.7-2.050-2.3-2.3 1.35-3.1 1.7-1.9 0.1 0.35-1.1-0.3-1.5 0.35-0.45 0.75 2.8 2.7-0.55 2.55 1.25 1.25 1.3 1.85-0.65 2.050 0.25 0.4 1.050 1.8 0.55 2z"></path>
            <path fill="#ed4c5c" style="fill: var(--color23, #ed4c5c)" d="M23.1 17.45l0.75-0.65s0.7 1.050 1.2 1.45c0.4-1.8 0.3-2.85 2.35-1.65-1.15-3.1 0.75-1.95 2.6-1.1-0.1-0.8 0-0.7 0.8-0.95 0.7 2.65-1.2 1.85-2.7 1 0.9 2.4-0.050 2.25-1.95 1.45-0.050 1-0.35 2.15-0.95 2.25-0.7 0.2-2.1-1.8-2.1-1.8z"></path>
            <path fill="#c28fef" style="fill: var(--color24, #c28fef)" d="M17.5 10.050c-0.9 1.2-2.35 1.85-3.4 2.9-1.1 1.1-1.75 4.1-1.75 4.1s0.4-3.15 1.45-4.35c0.95-1.1 2.35-1.9 3.1-3.15 1.3-2.3 0.1-5.3-1.6-7.050 0.35-0.3 0.85-0.7 1.1-1 1.65 2.050 3.050 6 1.1 8.55z"></path>
            <path fill="#ff8736" style="fill: var(--color22, #ff8736)" d="M19.050 12.6c-1.3 0.95-2.25 2.35-3.15 3.65-0.8 1.15-3.35 2.6-3.35 2.6s2.4-1.65 3.15-2.85c0.9-1.5 1.8-3.050 3.2-4.15 2.8-2.15 6.85-1.95 10-0.8-0.2 0.45-0.55 1.4-0.55 1.4s-6.65-1.8-9.3 0.15z"></path>
            <path fill="#42ade2" style="fill: var(--color21, #42ade2)" d="M24.6 12.35c-0.85 1.1-1.25 2.45-1.9 3.7-0.6 1.15-1.4 2.25-2.55 2.85-1.3 0.65-4.15 0.45-4.15 0.45s2.85-0.050 4.050-0.85c1.2-0.8 1.85-2.2 2.3-3.5 0.9-2.5 2-5.2 4.6-6.3 0.15 0.45 0.5 1.4 0.5 1.4s-1.45 0.4-2.85 2.25z"></path>
            <path fill="#42ade2" style="fill: var(--color21, #42ade2)" d="M1.605 7.162l1.414-1.415 1.415 1.414-1.414 1.415z"></path>
            <path fill="#ff8736" style="fill: var(--color22, #ff8736)" d="M3.587 11.598l1.413-1.414 1.414 1.414-1.414 1.414z"></path>
            <path fill="#ed4c5c" style="fill: var(--color23, #ed4c5c)" d="M7.179 4.911l1.414-1.414 1.414 1.414-1.414 1.414z"></path>
            <path fill="#c28fef" style="fill: var(--color24, #c28fef)" d="M22.602 21.848l1.414-1.415 1.414 1.415-1.414 1.414z"></path>
            <path fill="#ed4c5c" style="fill: var(--color23, #ed4c5c)" d="M19.451 26.695l1.414-1.414 1.415 1.415-1.415 1.414z"></path>
            <path fill="#ff8736" style="fill: var(--color22, #ff8736)" d="M25.64 27.803l1.414-1.415 1.414 1.415-1.414 1.414z"></path>
            <path fill="#42ade2" style="fill: var(--color21, #42ade2)" d="M27.039 21.366l1.414-1.414 1.414 1.414-1.414 1.415z"></path>
            <path fill="#42ade2" style="fill: var(--color21, #42ade2)" d="M24.678 6.412l1.414-1.415 1.415 1.415-1.414 1.414z"></path>
            <path fill="#ed4c5c" style="fill: var(--color23, #ed4c5c)" d="M9.522 14.896l1.415-1.414 1.414 1.414-1.414 1.415z"></path>
        </symbol>
        <symbol id="icon-menu" viewBox="0 0 24 24">
            <path d="M3 12h18M3 6h18M3 18h18" stroke="currentColor" stroke-width="2" stroke-linecap="round" fill="none"/>
        </symbol>
        <symbol id="icon-close" viewBox="0 0 24 24">
            <path d="M18 6L6 18M6 6l12 12" stroke="currentColor" stroke-width="2" stroke-linecap="round" fill="none"/>
        </symbol>
        <symbol id="icon-filter" viewBox="0 0 24 24">
            <path d="M4 7h16M7 12h10M10 17h4" stroke="currentColor" stroke-width="2" stroke-linecap="round" fill="none"/>
        </symbol>
        <symbol id="icon-search" viewBox="0 0 24 24">
            <circle cx="11" cy="11" r="8" stroke="currentColor" stroke-width="2" fill="none"/>
            <path d="M21 21l-4.35-4.35" stroke="currentColor" stroke-width="2" stroke-linecap="round" fill="none"/>
        </symbol>
        <symbol id="icon-chevron-left" viewBox="0 0 24 24">
            <path d="M15 18l-6-6 6-6" stroke="currentColor" stroke-width="2" stroke-linecap="round" stroke-linejoin="round" fill="none"/>
        </symbol>
        <symbol id="icon-chevron-right" viewBox="0 0 24 24">
            <path d="M9 18l6-6-6-6" stroke="currentColor" stroke-width="2" stroke-linecap="round" stroke-linejoin="round" fill="none"/>
        </symbol>
        <symbol id="icon-download" viewBox="0 0 24 24">
            <path d="M21 15v4a2 2 0 0 1-2 2H5a2 2 0 0 1-2-2v-4" stroke="currentColor" stroke-width="2" stroke-linecap="round" fill="none"/>
            <polyline points="7 10 12 15 17 10" stroke="currentColor" stroke-width="2" stroke-linecap="round" stroke-linejoin="round" fill="none"/>
            <line x1="12" y1="15" x2="12" y2="3" stroke="currentColor" stroke-width="2" stroke-linecap="round" fill="none"/>
        </symbol>
        <symbol id="icon-bell" viewBox="0 0 24 24">
            <path d="M18 8A6 6 0 0 0 6 8c0 7-3 9-3 9h18s-3-2-3-9" stroke="currentColor" stroke-width="2" fill="none"/>
            <path d="M13.73 21a2 2 0 0 1-3.46 0" stroke="currentColor" stroke-width="2" fill="none"/>
        </symbol>
        <symbol id="icon-check" viewBox="0 0 24 24">
            <polyline points="20 6 9 17 4 12" stroke="currentColor" stroke-width="2" stroke-linecap="round" stroke-linejoin="round" fill="none"/>
        </symbol>
    </defs>
</svg>